# xmcd
#
# Track frame offsets:
# 150
# 10867
# 24451
# 38704
# 48078
# 61769
# 75840
# 87442
# 96627
# 113799
# 125865
# 138086
# 149575
# 160636
# 173150
# 187337
# 196212
# 212707
# 227615
# 239696
#
# Disc length: 3365 seconds
#
#
# Revision: 1
# Processed by: cddbd v1.5.1PL2 Copyright (c) Steve Scherf et al.
# Submitted via: FreeRIP 2.945 
#
DISCID=100d2314
DTITLE=Jack Greene and Jeannie Seely - 20 All Time Greatest Hits
DYEAR=2003
DGENRE=Country
TTITLE0=There Goes My Everything
TTITLE1=Statue Of A Fool
TTITLE2=Don't Touch Me
TTITLE3=Wish I Didn't Have To Miss You
TTITLE4=You Are My Treasure
TTITLE5=Can I Sleep In Your Arms
TTITLE6=All The Time
TTITLE7=Much Oblige
TTITLE8=What Locks The Door
TTITLE9=Beautiful Lady
TTITLE10=I'll Love You More
TTITLE11=Until My Dreams Come True
TTITLE12=Back In The Arms Of Love
TTITLE13=I Need Somebody Bad
TTITLE14=We Don't Want The World
TTITLE15=Love Takes Care Of Me
TTITLE16=The Last Letter
TTITLE17=It's Only Love
TTITLE18=Wanting You But Never Having You
TTITLE19=California Turnarounds
EXTD=TeeVee Records
EXTT0=
EXTT1=
EXTT2=
EXTT3=
EXTT4=
EXTT5=
EXTT6=
EXTT7=
EXTT8=
EXTT9=
EXTT10=
EXTT11=
EXTT12=
EXTT13=
EXTT14=
EXTT15=
EXTT16=
EXTT17=
EXTT18=
EXTT19=
PLAYORDER=
